<svg width="328" height="68" viewBox="0 0 328 68" fill="none" xmlns="http://www.w3.org/2000/svg">
<path d="M43.4413 22.6667C42.2549 17.914 38.3306 15.172 32.4897 15.172C23.2721 15.172 17.8876 22.1183 17.8876 33.9086C17.8876 45.7903 22.9071 52.828 32.3984 52.828C40.6578 52.828 44.8559 48.9435 44.9928 42.7742H32.7635L25.1886 30.3441H61.7852V39.3925C61.7852 57.3979 49.4647 68 32.2159 68C13.0506 68 0 55.0215 0 34.0914C0 12.3387 14.3283 0 32.1247 0C47.6394 0 59.5949 9.41398 61.0551 22.6667H43.4413Z" fill="white"/>
<path d="M96.1002 0C111.25 0 124.392 9.04839 124.483 32.9032C124.483 54.6559 113.166 68 95.9176 68C81.4068 68 71.7329 58.7688 70.5465 47.2527H87.7039C88.6166 51.3656 91.9021 53.1935 95.9176 53.1935C103.584 53.1935 107.143 45.9731 107.234 34.6398V39.3925C104.679 45.5161 97.4691 44.328 89.8943 44.328C77.9388 44.328 69.9076 35.5538 69.8164 23.4892C69.7251 9.41398 80.4942 0 96.1002 0ZM96.1914 13.2527C90.6244 13.2527 86.6088 17.3656 86.7001 22.8495C86.7913 28.3333 90.6244 32.4462 96.1914 32.4462C101.576 32.4462 105.774 28.2419 105.683 22.8495C105.592 17.3656 101.576 13.2527 96.1914 13.2527Z" fill="white"/>
<path d="M157.52 67.086L149.763 52.2796L132.423 67.086V0.913978H157.338C177.689 0.913978 190.375 13.3441 190.375 34C190.375 54.6559 177.689 67.086 157.52 67.086ZM149.763 52.2796H156.881C167.103 52.2796 172.853 47.9839 172.853 34C172.853 20.0161 167.103 15.7204 156.425 15.7204H149.763V52.2796Z" fill="white"/>
<path d="M238.197 0.913978L255.537 8.5914V43.414C255.537 58.4032 244.129 67.9086 227.154 67.9086C210.179 67.9086 198.863 58.4032 198.863 43.414V8.5914L216.203 0.913978V41.8602C216.203 48.2581 220.766 52.828 227.154 52.828C233.634 52.828 238.197 48.2581 238.197 41.8602V0.913978Z" fill="white"/>
<path d="M328 34C328 56.0269 313.945 68 296.058 68C277.988 68 264.024 55.9355 264.024 34C264.024 11.9731 277.988 0 296.058 0C313.945 0 328 11.9731 328 34ZM310.112 34C310.112 21.8441 305.093 15.172 296.058 15.172C286.932 15.172 281.912 21.8441 281.912 34C281.912 46.1559 286.932 52.828 296.058 52.828C305.093 52.828 310.112 46.1559 310.112 34Z" fill="white"/>
</svg>
